<svg width="139" height="113" viewBox="0 0 139 113" fill="none" xmlns="http://www.w3.org/2000/svg">
<g opacity="0.1">
<path d="M139 47.7714C139 21.383 117.617 0 91.2286 0H-22.2286C-48.617 0 -70 21.383 -70 47.7714C-70 74.1599 -48.617 95.5429 -22.2286 95.5429H73.1826L92.6775 111.964C94.7412 113.501 97.6391 112.008 97.6391 109.462V95.0599C120.954 91.9425 139 71.9645 139 47.7714Z" fill="#3A51CE"/>
<path d="M95.0045 39.9559H-30.3516C-33.1178 39.9559 -35.3571 37.7166 -35.3571 34.9504C-35.3571 32.1842 -33.1178 29.9449 -30.3516 29.9449H95.0045C97.7707 29.9449 100.01 32.1842 100.01 34.9504C99.9661 37.7166 97.7707 39.9559 95.0045 39.9559Z" fill="white"/>
<path d="M95.0047 61.295H23.8306C21.0644 61.295 18.8251 59.0557 18.8251 56.2895C18.8251 53.5233 21.0644 51.2841 23.8306 51.2841H95.0047C97.7709 51.2841 100.01 53.5233 100.01 56.2895C99.9663 59.0557 97.7709 61.295 95.0047 61.295Z" fill="white"/>
</g>
</svg>
