<svg width="81" height="98" viewBox="0 0 81 98" fill="none" xmlns="http://www.w3.org/2000/svg">
<g opacity="0.1">
<path d="M181 41.3714C181 18.5183 162.482 7.3127e-07 139.629 6.28416e-07L41.3714 1.86197e-07C18.5183 8.33438e-08 -8.33439e-08 18.5183 -1.86197e-07 41.3714C-2.89051e-07 64.2246 18.5183 82.7429 41.3714 82.7429L124 82.7429L140.883 96.9643C142.671 98.2952 145.18 97.0023 145.18 94.7969L145.18 82.3246C165.372 79.6248 181 62.3233 181 41.3714Z" fill="#3A51CE"/>
<path d="M142.899 34.603L34.3366 34.603C31.9411 34.603 30.0018 32.6637 30.0018 30.2681C30.0018 27.8725 31.9411 25.9332 34.3366 25.9332L142.899 25.9332C145.294 25.9332 147.234 27.8725 147.234 30.2681C147.195 32.6637 145.294 34.603 142.899 34.603Z" fill="white"/>
<path d="M142.899 53.0832L81.2599 53.0832C78.8644 53.0832 76.925 51.1439 76.925 48.7483C76.925 46.3527 78.8644 44.4135 81.2599 44.4135L142.899 44.4135C145.294 44.4135 147.234 46.3527 147.234 48.7483C147.196 51.1439 145.294 53.0832 142.899 53.0832Z" fill="white"/>
</g>
</svg>
