<svg width="665" height="686" viewBox="0 0 665 686" fill="none" xmlns="http://www.w3.org/2000/svg">
<path d="M320.576 491.762C320.576 491.762 344.343 447.649 318.82 422.607C293.297 397.564 303.177 381.658 344.003 381.863C384.828 382.068 520.497 389.469 550.658 299.106C580.84 208.622 540.882 143.59 450.419 113.287C359.956 82.9839 180.98 30.588 135.935 100.127C90.8913 169.666 94.3285 216.871 126.344 261.407C158.359 305.944 226.321 350.715 241.755 377.007C257.19 403.3 268.246 427.459 293.793 436.511C319.339 445.564 318.549 476.791 310.893 489.958C303.337 503.268 320.576 491.762 320.576 491.762Z" fill="#FDB100" stroke="#F38518" stroke-width="1.55092" stroke-miterlimit="10"/>
<path d="M152.814 53.9453C152.814 53.9453 107.572 79.2154 100.542 89.4927C93.3907 99.7489 82.0455 107.529 92.3819 136.561C102.718 165.594 119.67 188.9 130.189 193.098C140.707 197.296 155.064 199.535 189.898 180.958C224.733 162.38 272.422 146.781 274.907 128.843C277.392 110.906 266.242 20.2535 225.536 26.5669C184.831 32.8802 152.814 53.9453 152.814 53.9453Z" fill="white"/>
<path d="M153.599 82.5715C149.592 85.5006 153.721 94.8384 157.817 100.047C161.933 105.134 166.997 117.008 167.454 124.46C167.912 131.912 171.071 141.081 183.06 124.541C195.049 108.001 208.04 99.382 199.841 83.9656C191.642 68.5491 153.599 82.5715 153.599 82.5715Z" fill="#FDB100" stroke="#F38518" stroke-width="1.55092" stroke-miterlimit="10"/>
<path d="M144.789 77.1705C140.782 80.0996 144.911 89.4375 149.006 94.6459C153.123 99.733 158.187 111.607 158.644 119.059C159.102 126.511 162.26 135.68 174.25 119.14C186.239 102.6 199.229 93.981 191.031 78.5646C182.832 63.1481 144.789 77.1705 144.789 77.1705Z" stroke="#F38518" stroke-width="1.51691" stroke-miterlimit="10" stroke-linecap="round" stroke-linejoin="round"/>
<path d="M269.246 283.308C269.246 283.308 252.802 293.827 255.153 311.979C257.505 330.13 265.109 349.692 293.212 345.443C321.435 341.214 370.992 327.813 377.828 328.748C384.663 329.683 398.712 338.741 399.108 340.06C399.505 341.378 413.862 265.769 381.301 264.748C348.903 263.504 269.246 283.308 269.246 283.308Z" fill="white"/>
<path d="M148.791 46.8751C128.956 56.0569 62.4486 89.3863 88.7944 134.19C129.89 235.906 176.66 168.666 232.03 148.401C246.214 142.987 278.216 133.541 272.103 102.491C265.969 71.5632 252.753 -6.45161 180.926 29.4542" stroke="#F38518" stroke-width="1.51691" stroke-miterlimit="10" stroke-linecap="round" stroke-linejoin="round"/>
<path d="M262.986 274.725C262.986 274.725 246.543 285.245 248.894 303.396C251.245 321.548 258.85 341.11 286.952 336.86C315.176 332.631 364.733 319.23 371.568 320.165C378.404 321.1 392.453 330.159 392.849 331.477C393.245 332.795 407.603 257.187 375.041 256.165C342.48 255.143 262.986 274.725 262.986 274.725Z" stroke="#F38518" stroke-width="1.51691" stroke-miterlimit="10" stroke-linecap="round" stroke-linejoin="round"/>
<path d="M288.108 317.942C292.53 318.709 296.736 315.745 297.502 311.323C298.269 306.902 295.306 302.696 290.884 301.929C286.462 301.162 282.256 304.126 281.489 308.547C280.723 312.969 283.686 317.175 288.108 317.942Z" stroke="#F38518" stroke-width="1.51691" stroke-miterlimit="10" stroke-linecap="round" stroke-linejoin="round"/>
<path d="M324.108 309.938C328.53 310.705 332.736 307.742 333.503 303.32C334.269 298.898 331.306 294.692 326.884 293.925C322.462 293.159 318.256 296.122 317.49 300.544C316.723 304.965 319.686 309.172 324.108 309.938Z" stroke="#F38518" stroke-width="1.51691" stroke-miterlimit="10" stroke-linecap="round" stroke-linejoin="round"/>
<path d="M364.149 303.135C368.571 303.901 372.777 300.938 373.544 296.516C374.31 292.094 371.347 287.888 366.925 287.122C362.503 286.355 358.297 289.318 357.531 293.74C356.764 298.162 359.727 302.368 364.149 303.135Z" stroke="#F38518" stroke-width="1.51691" stroke-miterlimit="10" stroke-linecap="round" stroke-linejoin="round"/>
<path d="M283.545 157.581C283.545 157.581 267.744 187.456 273.899 196.645C280.053 205.834 303.455 239.506 339.297 240.346C375.16 241.066 383.648 205.8 383.648 205.8C383.648 205.8 373.563 194.055 359.386 192.222C345.209 190.389 332.238 186.641 325.18 173.297C318.122 159.952 296.964 151.536 283.545 157.581Z" fill="white"/>
<path d="M291.502 144.841C291.502 144.841 312.569 142.245 323.01 149.054C333.472 155.741 333.867 175.802 352.211 178.108C370.555 180.413 377.195 180.315 383.221 187.358C389.248 194.4 390.682 194.774 390.682 194.774C390.682 194.774 411.418 162.381 402.199 142.04C392.98 121.698 330.738 103.035 321.813 109.11C312.929 114.942 299.946 125.687 291.502 144.841Z" fill="white"/>
<path d="M381.341 162.165C385.763 162.932 389.969 159.969 390.736 155.547C391.502 151.125 388.539 146.919 384.117 146.152C379.695 145.386 375.489 148.349 374.723 152.771C373.956 157.193 376.919 161.399 381.341 162.165Z" fill="#FDB100" stroke="#F38518" stroke-width="1.55092" stroke-miterlimit="10"/>
<path d="M507.354 110.662C417.564 116.838 403.891 230.302 487.869 252.608C518.212 258.494 554.271 260.247 571.335 225.968C588.399 191.689 592.241 148.62 556.442 128.794C520.643 108.967 507.354 110.662 507.354 110.662Z" fill="white"/>
<path d="M520.208 104.269C430.418 110.444 416.746 223.909 500.723 246.215C620.692 274.261 629.539 109.352 520.208 104.269Z" stroke="#F38518" stroke-width="1.51691" stroke-miterlimit="10" stroke-linecap="round" stroke-linejoin="round"/>
<path d="M499.362 215.864C499.362 215.864 513.172 230.629 529.3 212.558C545.429 194.486 550.095 183.424 542.34 177.706C534.584 171.988 528.887 170.251 530.761 162.328C532.513 154.385 546.378 135.671 540.581 133.792C534.906 131.933 532.243 133.596 524.563 141.136C516.762 148.655 494.351 155.392 487.411 155.063C480.47 154.734 459.85 166.279 464.45 177.948C468.907 189.717 499.362 215.864 499.362 215.864Z" fill="#FDB100"/>
<path d="M119.907 227.178C41.3509 273.788 118.59 389.018 191.203 344.252C220.733 326.005 241.583 300.879 229.822 269.975C218.06 239.071 190.874 189.749 119.907 227.178Z" fill="white"/>
<path d="M121.316 219.05C42.76 265.66 120.02 380.769 192.613 336.124C222.142 317.877 242.992 292.751 231.231 261.847C219.469 230.943 192.283 181.621 121.316 219.05Z" stroke="#F38518" stroke-width="1.51691" stroke-miterlimit="10" stroke-linecap="round" stroke-linejoin="round"/>
<path d="M151.037 264.564C151.037 264.564 125.396 254.62 128.405 280.508C131.414 306.396 169.679 311.281 169.679 311.281C169.679 311.281 196.217 261.275 173.817 247.77C151.517 234.408 151.037 264.564 151.037 264.564Z" fill="#FDB100" stroke="#F38518" stroke-width="1.55092" stroke-miterlimit="10"/>
<path d="M468.246 176.232C468.246 176.232 472.646 159.501 480.331 160.583C488.015 161.666 507.262 165.252 515.684 155.591C523.986 145.909 536.18 138.277 536.18 138.277C541.476 139.445 545.294 140.482 539.363 153.073C533.431 165.665 527.503 174.634 531.323 178.545C535.122 182.578 550.145 188.181 548.503 194.769C546.719 201.457 525.207 231.841 512.434 232.001C499.661 232.161 465.465 192.994 465.465 192.994C465.465 192.994 458.936 182.365 468.246 176.232Z" stroke="#F38518" stroke-width="1.51691" stroke-miterlimit="10" stroke-linecap="round" stroke-linejoin="round"/>
<path d="M281.975 150.062C281.975 150.062 308.102 141.346 323.112 161.442C338.121 181.538 342.632 185.069 358.767 187.866C374.901 190.663 387.38 192.202 382.464 201.096C377.569 209.87 363.962 229.253 363.962 229.253C363.962 229.253 349.495 237.741 337.706 232.948C325.916 228.155 287.053 209.422 281.769 200.259C276.343 191.196 270.121 183.119 276.098 166.662C281.975 150.062 281.975 150.062 281.975 150.062Z" stroke="#F38518" stroke-width="1.51691" stroke-miterlimit="10" stroke-linecap="round" stroke-linejoin="round"/>
<path d="M286.237 142.054C286.237 142.054 304.014 100.776 326.737 105.215C349.559 109.797 393.782 122.836 402.22 141.918C410.679 160.879 404.945 168.007 399.819 178.114C394.714 188.1 389.127 194.379 389.127 194.379C389.127 194.379 382.451 187.474 380.799 183.314C379.146 179.154 356.284 180.563 352.09 178.087C347.917 175.489 331.851 162.207 326.789 153.207C321.726 144.208 296.804 138.762 286.237 142.054Z" stroke="#F38518" stroke-width="1.51691" stroke-miterlimit="10" stroke-linecap="round" stroke-linejoin="round"/>
<path d="M318.632 535.41C318.632 535.41 327.256 547.651 332.262 559.141C337.147 570.609 364.059 640.252 395.881 618.153C427.702 596.054 417.711 492.233 417.711 492.233L398.353 477.756C398.353 477.756 390.883 571.303 386.478 579.411C381.952 587.498 377.519 581.356 370.753 572.811C363.966 564.387 334.773 530.961 334.773 530.961L318.632 535.41Z" fill="#A3685D" stroke="#6B423E" stroke-width="1.13765" stroke-miterlimit="10"/>
<path d="M450.831 413.629C450.831 413.629 430.268 413.313 413.044 444.19C395.821 475.067 396.886 476.127 396.886 476.127L416.753 496.315L450.831 413.629Z" fill="#ADA8E5" stroke="#ADA8E5" stroke-width="1.13765" stroke-miterlimit="10"/>
<path d="M455.627 407.588C455.627 407.588 419.495 435.812 408.8 465.072C398.246 494.231 397.982 503.682 402.103 517.392C406.224 531.102 406.705 562.925 402.887 583.505C399.048 604.207 392.501 655.484 392.501 655.484L530.485 655.484L505.705 500.74C505.705 500.74 547.043 484.29 567.39 483.694C567.39 483.694 562.219 429.191 545.861 423.356C529.483 417.643 509.281 411.641 500.076 407.796C491.034 403.73 455.627 407.588 455.627 407.588Z" fill="#ADA8E5" stroke="#ADA8E5" stroke-width="1.13765" stroke-miterlimit="10"/>
<path d="M498.112 445.068C498.112 445.068 494.175 459.13 503.025 489.529L498.112 445.068Z" fill="#ADA8E5"/>
<path d="M498.112 445.068C498.112 445.068 494.175 459.13 503.025 489.529" stroke="#ADA8E5" stroke-width="2.0679" stroke-miterlimit="10"/>
<path d="M336.578 493.162C336.578 493.162 373.448 503.927 377.696 507.538C381.822 511.127 407.657 537.973 407.657 537.973C407.657 537.973 508.583 577.838 517.632 574.658L502.904 489.508C502.904 489.508 563.403 474.256 566.415 474.903C569.405 475.671 581.266 553.576 580.503 577.436C579.862 601.316 570.308 644.894 544.286 643.631C518.264 642.369 416.778 573.293 395.279 558.195C395.279 558.195 374.673 545.875 372.773 542.422C372.773 542.422 374.633 548.992 371.637 548.973C368.641 548.953 353.272 537.417 349.999 520.98C349.999 520.98 350.782 515.742 361.972 513.184C361.972 513.184 335.882 503.663 334.959 502.503C334.056 501.222 324.997 493.653 336.578 493.162Z" fill="#A3685D" stroke="#6B423E" stroke-width="1.13765" stroke-miterlimit="10"/>
<path d="M297.104 484.444C297.104 484.444 296.949 480.294 301.864 480.771C306.78 481.248 332.556 486.092 332.556 486.092C332.556 486.092 337.107 486.506 338.228 491.574C339.349 496.641 362.197 550.085 362.197 550.085C362.197 550.085 361.377 554.816 357.78 553.943C354.162 553.19 324.193 548.745 324.193 548.745L297.104 484.444Z" fill="#6B5FF3" stroke="black" stroke-width="0.758401" stroke-miterlimit="10"/>
<path d="M300.353 495.254C300.353 495.254 296.228 513.282 298.647 520.949C301.067 528.616 304.782 542.505 323.244 539.083C341.706 535.661 341.95 529.206 339.888 528.849C337.704 528.47 333.258 527.449 333.258 527.449C333.258 527.449 340.323 524.176 339.346 521.882C338.369 519.588 335.004 517.38 332.694 517.73C330.384 518.079 336.005 515.93 335.133 513.029C334.261 510.129 332.71 508.986 328.623 508.777C324.536 508.568 305.876 508.082 305.876 508.082L300.353 495.254Z" fill="#A3685D" stroke="#6B423E" stroke-width="1.13765" stroke-miterlimit="10"/>
<path d="M479.175 387.804C481.427 368.326 480.288 328.767 480.288 328.767L422.245 339.947C422.245 339.947 419.68 357.621 422.87 365.172C422.87 365.172 414.197 369.791 414.931 372.043C415.665 374.294 422.342 374.702 423.73 376.067C425.118 377.432 435.26 408.305 452.912 398.745C453.467 400.591 453.916 403.043 453.052 405.142C451.383 409.726 448.615 411.995 445.912 426.147C443.209 440.298 436.595 479.887 436.595 479.887C436.595 479.887 491.717 407.722 506.803 403.59C518.077 400.546 492.81 392.042 479.175 387.804Z" fill="#A3685D" stroke="#6B423E" stroke-width="1.13765" stroke-miterlimit="10"/>
<path d="M430.357 381.09C430.357 381.09 434.876 380.249 434.456 373.303L430.357 381.09Z" fill="#A3685D"/>
<path d="M430.357 381.09C430.357 381.09 434.876 380.249 434.456 373.303" stroke="#6B423E" stroke-width="1.90319" stroke-miterlimit="10" stroke-linecap="round" stroke-linejoin="round"/>
<path d="M453.094 364.539C453.094 364.539 450.476 359.461 456.475 355.128L453.094 364.539Z" fill="#A3685D"/>
<path d="M453.094 364.539C453.094 364.539 450.476 359.461 456.475 355.128" stroke="#6B423E" stroke-width="1.90319" stroke-miterlimit="10" stroke-linecap="round" stroke-linejoin="round"/>
<path d="M432.803 364.317C433.974 363.96 434.554 362.458 434.098 360.962C433.643 359.466 432.324 358.542 431.153 358.899C429.982 359.255 429.402 360.757 429.858 362.254C430.314 363.75 431.632 364.673 432.803 364.317Z" fill="#543332"/>
<path d="M430.28 346.213C430.28 346.213 415.86 344.338 416.898 331.148C416.898 331.148 399.681 326.664 405.447 308.545C411.191 290.547 430.186 298.464 430.186 298.464C430.186 298.464 445.728 277.291 463.968 292.449C463.968 292.449 470.805 286.887 476.484 294.494C476.484 294.494 487.259 287.116 494.696 298.277C494.696 298.277 499.753 286.408 511.627 290.715C523.622 295.044 522.753 307.264 522.753 307.264C522.753 307.264 530.886 298.553 541.048 307.687C551.211 316.821 543.723 329.018 543.723 329.018C543.723 329.018 563.753 339.614 547.038 354.584C547.038 354.584 557.707 363.681 545.779 376.983C545.779 376.983 547.719 396.063 530.104 406.13C512.368 416.175 496.831 405.609 496.831 405.609C496.831 405.609 487.739 415.529 475.003 406.824C462.146 398.097 471.007 389.512 471.007 389.512C471.007 389.512 458.121 385.278 456.685 372.659C456.685 372.659 477.41 369.879 467.18 352.486C464.029 348.316 449.761 344.842 446.458 361.014C446.458 361.014 444.059 362.597 443.749 354.296C443.707 354.539 434.542 356.949 430.28 346.213Z" fill="#172540"/>
</svg>
